<svg width="121" height="121" viewBox="0 0 121 121" fill="none" xmlns="http://www.w3.org/2000/svg">
<g filter="url(#filter0_d_3955_83206)">
<rect x="30" y="12" width="61" height="61" rx="15" fill="white" shape-rendering="crispEdges"/>
<rect x="30.5" y="12.5" width="60" height="60" rx="14.5" stroke="#E0E0E9" stroke-linecap="round" shape-rendering="crispEdges"/>
<path fill-rule="evenodd" clip-rule="evenodd" d="M71.54 42.7615C71.54 41.946 71.4668 41.1619 71.3309 40.4092H60.5V44.8576H66.6891C66.4225 46.2951 65.6123 47.513 64.3943 48.3285V51.214H68.1109C70.2855 49.2119 71.54 46.2637 71.54 42.7615Z" fill="#4285F4"/>
<path fill-rule="evenodd" clip-rule="evenodd" d="M60.4995 53.9998C63.6045 53.9998 66.2077 52.97 68.1104 51.2137L64.3938 48.3282C63.364 49.0182 62.0467 49.4259 60.4995 49.4259C57.5042 49.4259 54.969 47.403 54.0647 44.6848H50.2227V47.6644C52.1149 51.4228 56.004 53.9998 60.4995 53.9998Z" fill="#34A853"/>
<path fill-rule="evenodd" clip-rule="evenodd" d="M54.0652 44.685C53.8352 43.995 53.7045 43.2579 53.7045 42.5C53.7045 41.742 53.8352 41.005 54.0652 40.315V37.3354H50.2232C49.4443 38.8879 49 40.6443 49 42.5C49 44.3557 49.4443 46.112 50.2232 47.6645L54.0652 44.685Z" fill="#FBBC05"/>
<path fill-rule="evenodd" clip-rule="evenodd" d="M60.4995 35.5739C62.1879 35.5739 63.7038 36.1541 64.8956 37.2936L68.194 33.9952C66.2024 32.1395 63.5992 31 60.4995 31C56.004 31 52.1149 33.577 50.2227 37.3355L54.0647 40.315C54.969 37.5968 57.5042 35.5739 60.4995 35.5739Z" fill="#EA4335"/>
</g>
<defs>
<filter id="filter0_d_3955_83206" x="0" y="0" width="121" height="121" filterUnits="userSpaceOnUse" color-interpolation-filters="sRGB">
<feFlood flood-opacity="0" result="BackgroundImageFix"/>
<feColorMatrix in="SourceAlpha" type="matrix" values="0 0 0 0 0 0 0 0 0 0 0 0 0 0 0 0 0 0 127 0" result="hardAlpha"/>
<feOffset dy="18"/>
<feGaussianBlur stdDeviation="15"/>
<feComposite in2="hardAlpha" operator="out"/>
<feColorMatrix type="matrix" values="0 0 0 0 0.266667 0 0 0 0 0.380392 0 0 0 0 0.94902 0 0 0 0.11 0"/>
<feBlend mode="normal" in2="BackgroundImageFix" result="effect1_dropShadow_3955_83206"/>
<feBlend mode="normal" in="SourceGraphic" in2="effect1_dropShadow_3955_83206" result="shape"/>
</filter>
</defs>
</svg>
